<svg xmlns="http://www.w3.org/2000/svg" viewBox="0 0 640 420" role="img" aria-labelledby="title desc">
  <title id="title">Portable Parts Library</title>
  <desc id="desc">Archive-style product browser panel with modular trays and orange UI accents.</desc>
  <defs>
    <linearGradient id="bg" x1="0" y1="0" x2="1" y2="1">
      <stop offset="0%" stop-color="#eef1f1" />
      <stop offset="100%" stop-color="#d4dbe0" />
    </linearGradient>
  </defs>
  <rect width="640" height="420" rx="34" fill="url(#bg)" />
  <rect x="24" y="24" width="592" height="372" rx="24" fill="#f9f7f2" stroke="#96a0a8" />
  <rect x="24" y="24" width="592" height="52" rx="24" fill="#ef8627" />
  <rect x="48" y="102" width="160" height="236" rx="18" fill="#d8e0e5" />
  <rect x="232" y="102" width="160" height="236" rx="18" fill="#fffaf1" stroke="#99a4ab" stroke-width="3" />
  <rect x="416" y="102" width="176" height="236" rx="18" fill="#d8e0e5" />
  <rect x="68" y="132" width="120" height="28" rx="10" fill="#ef8627" />
  <rect x="252" y="132" width="120" height="28" rx="10" fill="#d3dde2" />
  <rect x="436" y="132" width="136" height="28" rx="10" fill="#ef8627" />
  <rect x="68" y="186" width="120" height="110" rx="16" fill="#f7f2e6" />
  <rect x="252" y="186" width="120" height="110" rx="16" fill="#ef8627" />
  <rect x="436" y="186" width="136" height="110" rx="16" fill="#f7f2e6" />
  <text x="48" y="60" font-family="Arial, sans-serif" font-size="18" letter-spacing="4" fill="#fffaf1">CURRENT WORK / ARCHIVE</text>
  <text x="48" y="370" font-family="Arial, sans-serif" font-size="40" font-weight="700" fill="#2a3136">PORTABLE PARTS LIBRARY</text>
  <text x="48" y="394" font-family="Arial, sans-serif" font-size="17" fill="#5b646c">Reusable inserts, quick inventory reads, and a retro catalog rhythm for physical components.</text>
</svg>
